<svg width="317" height="412" viewBox="0 0 317 412" fill="none" xmlns="http://www.w3.org/2000/svg">
<g opacity="0.83">
<path d="M290.046 173.89C351.16 269.732 305.167 407.06 159.207 412C13.2469 406.072 -35.8538 268.744 26.4773 173.89C88.8085 79.0362 75.8308 0 159.207 0C242.583 0 228.932 78.0481 290.046 173.89Z" fill="url(#paint0_linear_766_25)"/>
<path d="M290.046 173.89C351.16 269.732 305.167 407.06 159.207 412C13.2469 406.072 -35.8538 268.744 26.4773 173.89C88.8085 79.0362 75.8308 0 159.207 0C242.583 0 228.932 78.0481 290.046 173.89Z" fill="url(#paint1_linear_766_25)"/>
</g>
<g opacity="0.83">
<path d="M258.032 187.989C304.394 260.304 269.503 363.922 158.776 367.65C48.0492 363.177 10.8009 259.559 58.086 187.989C105.371 116.419 95.5261 56.7836 158.776 56.7836C222.026 56.7836 211.67 115.673 258.032 187.989Z" fill="#55DF1E"/>
<path d="M258.032 187.989C304.394 260.304 269.503 363.922 158.776 367.65C48.0492 363.177 10.8009 259.559 58.086 187.989C105.371 116.419 95.5261 56.7836 158.776 56.7836C222.026 56.7836 211.67 115.673 258.032 187.989Z" fill="white"/>
</g>
<g opacity="0.83">
<path d="M202.181 240.95C222.657 272.966 207.247 318.84 158.343 320.49C109.438 318.51 92.987 272.636 113.871 240.95C134.756 209.264 130.407 182.862 158.343 182.862C186.278 182.862 181.704 208.934 202.181 240.95Z" fill="url(#paint2_linear_766_25)"/>
<path d="M202.181 240.95C222.657 272.966 207.247 318.84 158.343 320.49C109.438 318.51 92.987 272.636 113.871 240.95C134.756 209.264 130.407 182.862 158.343 182.862C186.278 182.862 181.704 208.934 202.181 240.95Z" fill="url(#paint3_linear_766_25)"/>
</g>
<defs>
<linearGradient id="paint0_linear_766_25" x1="2.501e-06" y1="367.953" x2="303.542" y2="32.4443" gradientUnits="userSpaceOnUse">
<stop stop-color="#0A6107"/>
<stop offset="0.480769" stop-color="#0F740C"/>
<stop offset="1" stop-color="#0BAD06"/>
</linearGradient>
<linearGradient id="paint1_linear_766_25" x1="2.501e-06" y1="367.953" x2="303.542" y2="32.4443" gradientUnits="userSpaceOnUse">
<stop stop-color="#0A6107"/>
<stop offset="0.480769" stop-color="#0F740C"/>
<stop offset="1" stop-color="#0BAD06"/>
</linearGradient>
<linearGradient id="paint2_linear_766_25" x1="105" y1="266.334" x2="210.36" y2="234.877" gradientUnits="userSpaceOnUse">
<stop offset="0.00223274" stop-color="#166F13"/>
<stop offset="1" stop-color="#0D9609"/>
</linearGradient>
<linearGradient id="paint3_linear_766_25" x1="105" y1="266.334" x2="210.36" y2="234.877" gradientUnits="userSpaceOnUse">
<stop offset="0.00223274" stop-color="#166F13"/>
<stop offset="1" stop-color="#0D9609"/>
</linearGradient>
</defs>
</svg>
