<svg width="1026" height="1024" viewBox="0 0 1026 1024" fill="none" xmlns="http://www.w3.org/2000/svg">
<path d="M2 80C2 35.8172 37.8172 0 82 0H946C990.183 0 1026 35.8172 1026 80V943C1026 987.183 990.183 1023 946 1023H82C37.8172 1023 2 987.183 2 943V80Z" fill="url(#paint0_linear_665_143)" fill-opacity="0.68"/>
<rect x="484" y="643" width="468" height="40" rx="19" fill="#FFFDFD"/>
<rect x="562" y="745" width="390" height="40" rx="19" fill="#FFFDFD"/>
<rect x="637" y="847" width="315" height="40" rx="19" fill="#FFFDFD"/>
<path d="M858.506 158.579C861.878 158.58 864.588 161.358 864.504 164.729L857.345 452.156C857.214 457.406 850.877 459.967 847.136 456.281L729.968 340.832L730.916 341.781L526.043 546.627L526.992 547.571L480.73 594.133C472.945 601.968 460.283 602.009 452.447 594.225L351.522 493.953L231.866 613.583H232.7L425.328 808.819C440.068 823.758 439.906 847.817 424.967 862.557L261.762 1023.58H49.3486L0.976562 974.556V722.58L1.17871 722.38V710.38H13.3418L71.6191 652.88L70.5918 651.853L306.512 415.986L336.149 386.156C343.934 378.32 356.598 378.279 364.434 386.064L464.353 485.336L668.977 280.737L555.427 168.853C551.604 165.086 554.272 158.579 559.639 158.579H858.506Z" fill="#FFFDFD"/>
<circle cx="175" cy="694" r="39" fill="#2947CA"/>
<circle cx="175" cy="923" r="39" fill="#2947CA"/>
<circle cx="294" cy="808" r="39" fill="#2947CA"/>
<rect x="163" y="729" width="29" height="158" fill="#2947CA"/>
<rect x="198.94" y="693" width="121.287" height="29" transform="rotate(46.227 198.94 693)" fill="#2947CA"/>
<rect x="187" y="893.114" width="121.287" height="29" transform="rotate(-44.568 187 893.114)" fill="#2947CA"/>
<defs>
<linearGradient id="paint0_linear_665_143" x1="1026" y1="108.032" x2="2.00004" y2="914.968" gradientUnits="userSpaceOnUse">
<stop stop-color="#3257FA"/>
<stop offset="0.563582" stop-color="#041974"/>
</linearGradient>
</defs>
</svg>
